<svg id="Camada_1" data-name="Camada 1" xmlns="http://www.w3.org/2000/svg" viewBox="0 0 638.17 353.57"><defs><style>.cls-1{fill:none;stroke:#1d1d1b;stroke-miterlimit:10;}.cls-2,.cls-6,.cls-7,.cls-9{font-size:12px;}.cls-13,.cls-2,.cls-6,.cls-7,.cls-9{fill:#1d1d1b;}.cls-2,.cls-7{font-family:MyriadPro-Regular, Myriad Pro;}.cls-2{letter-spacing:0.02em;}.cls-3{letter-spacing:-0.01em;}.cls-4{letter-spacing:0em;}.cls-5{letter-spacing:0.02em;}.cls-6{font-family:TimesNewRomanPS-ItalicMT, Times New Roman;font-style:italic;}.cls-8{letter-spacing:0em;}.cls-9{font-family:TimesNewRomanPSMT, Times New Roman;}.cls-10{letter-spacing:-0.03em;}.cls-11{letter-spacing:0.01em;}.cls-12{letter-spacing:0em;}.cls-13{font-size:18px;font-family:TimesNewRomanPS-BoldMT, Times New Roman;font-weight:700;}</style></defs><title>quadro5c</title><polyline class="cls-1" points="86.64 0.5 86.64 33.33 0.5 33.33"/><rect class="cls-1" x="86.64" y="0.5" width="86.14" height="32.83"/><rect class="cls-1" x="172.79" y="0.5" width="86.14" height="32.83"/><rect class="cls-1" x="258.93" y="0.5" width="86.14" height="32.83"/><rect class="cls-1" x="345.07" y="0.5" width="86.14" height="32.83"/><rect class="cls-1" x="517.36" y="0.5" width="43.07" height="32.83"/><rect class="cls-1" x="0.5" y="33.33" width="86.14" height="65.67"/><rect class="cls-1" x="86.64" y="33.33" width="86.14" height="65.67"/><rect class="cls-1" x="172.79" y="33.33" width="86.14" height="65.67"/><rect class="cls-1" x="258.93" y="33.33" width="86.14" height="65.67"/><rect class="cls-1" x="345.07" y="33.33" width="86.14" height="65.67"/><rect class="cls-1" x="431.21" y="33.33" width="86.14" height="65.67"/><rect class="cls-1" x="517.36" y="33.33" width="43.07" height="65.67"/><rect class="cls-1" x="0.5" y="99" width="86.14" height="65.67"/><rect class="cls-1" x="86.64" y="99" width="86.14" height="65.67"/><rect class="cls-1" x="172.79" y="99" width="86.14" height="65.67"/><rect class="cls-1" x="258.93" y="99" width="86.14" height="65.67"/><rect class="cls-1" x="345.07" y="99" width="86.14" height="65.67"/><rect class="cls-1" x="431.21" y="99" width="86.14" height="65.67"/><rect class="cls-1" x="517.36" y="99" width="43.07" height="65.67"/><rect class="cls-1" x="0.5" y="164.67" width="86.14" height="65.67"/><rect class="cls-1" x="86.64" y="164.67" width="86.14" height="65.67"/><rect class="cls-1" x="172.79" y="164.67" width="86.14" height="65.67"/><rect class="cls-1" x="258.93" y="164.67" width="86.14" height="65.67"/><rect class="cls-1" x="345.07" y="164.67" width="86.14" height="65.67"/><rect class="cls-1" x="431.21" y="164.67" width="86.14" height="65.67"/><rect class="cls-1" x="517.36" y="164.67" width="43.07" height="65.67"/><rect class="cls-1" x="0.5" y="230.33" width="86.14" height="36.81"/><rect class="cls-1" x="86.64" y="230.33" width="86.14" height="36.81"/><rect class="cls-1" x="172.79" y="230.33" width="86.14" height="36.81"/><rect class="cls-1" x="258.93" y="230.33" width="86.14" height="36.81"/><rect class="cls-1" x="345.07" y="230.33" width="86.14" height="36.81"/><rect class="cls-1" x="0.5" y="267.14" width="86.14" height="31.22"/><rect class="cls-1" x="86.64" y="267.14" width="86.14" height="31.22"/><rect class="cls-1" x="172.79" y="267.14" width="86.14" height="31.22"/><rect class="cls-1" x="258.93" y="267.14" width="86.14" height="31.22"/><rect class="cls-1" x="345.07" y="267.14" width="86.14" height="31.22"/><path class="cls-1" d="M612,371" transform="translate(-8.5 -9.33)"/><path class="cls-1" d="M525.86,305.33" transform="translate(-8.5 -9.33)"/><path class="cls-1" d="M525.86,371" transform="translate(-8.5 -9.33)"/><path class="cls-1" d="M525.86,371" transform="translate(-8.5 -9.33)"/><path class="cls-1" d="M9,42.67" transform="translate(-8.5 -9.33)"/><polyline class="cls-1" points="129.71 33.33 129.71 66.17 86.64 66.17"/><polyline class="cls-1" points="215.86 33.33 215.86 66.17 172.79 66.17"/><polyline class="cls-1" points="302 33.33 302 66.17 258.93 66.17"/><polyline class="cls-1" points="388.14 33.33 388.14 66.17 345.07 66.17"/><polyline class="cls-1" points="129.71 99 129.71 131.83 86.64 131.83"/><polyline class="cls-1" points="215.86 99 215.86 131.83 172.79 131.83"/><polyline class="cls-1" points="302 99 302 131.83 258.93 131.83"/><polyline class="cls-1" points="388.14 99 388.14 131.83 345.07 131.83"/><polyline class="cls-1" points="129.71 164.67 129.71 197.5 86.64 197.5"/><polyline class="cls-1" points="215.86 164.67 215.86 197.5 172.79 197.5"/><polyline class="cls-1" points="302 164.67 302 197.5 258.93 197.5"/><polyline class="cls-1" points="388.14 164.67 388.14 197.5 345.07 197.5"/><rect class="cls-1" x="431.21" y="0.5" width="86.14" height="32.83"/><text class="cls-2" transform="translate(457.5 19.33)">O<tspan class="cls-3" x="8.46" y="0">f</tspan><tspan class="cls-4" x="11.81" y="0">e</tspan><tspan class="cls-5" x="17.82" y="0">r</tspan><tspan class="cls-4" x="22.03" y="0">ta</tspan></text><text class="cls-6" transform="translate(533.5 18.33)">u</text><text class="cls-6" transform="translate(539.5 22.33) scale(0.58)">i</text><text class="cls-6" transform="translate(37.5 282.75)">v</text><text class="cls-6" transform="translate(42.83 286.75) scale(0.58)">j</text><text class="cls-7" transform="translate(19.17 248.74)"><tspan class="cls-8">D</tspan><tspan x="8.04" y="0">emanda</tspan></text><text class="cls-9" transform="translate(68.83 66.67)">1</text><text class="cls-9" transform="translate(68.83 131.83)">2</text><text class="cls-7" transform="translate(11.38 197.5) scale(1.18 1)">(<tspan class="cls-10" x="3.41" y="0">F</tspan><tspan x="8.94" y="0">i</tspan><tspan class="cls-11" x="11.75" y="0">c</tspan><tspan class="cls-12" x="17.28" y="0">tícia) 3</tspan></text><text class="cls-9" transform="translate(101.83 53.33)">45</text><text class="cls-9" transform="translate(188.99 53.75)">17</text><text class="cls-9" transform="translate(272.5 53.75)">21</text><text class="cls-9" transform="translate(359.5 53.33)">30</text><text class="cls-9" transform="translate(101.83 120.13)">14</text><text class="cls-9" transform="translate(188.99 120.54)">18</text><text class="cls-9" transform="translate(272.5 120.54)">19</text><text class="cls-9" transform="translate(359.5 120.13)">31</text><text class="cls-9" transform="translate(101.83 184.13)">0</text><text class="cls-9" transform="translate(188.99 184.54)">0</text><text class="cls-9" transform="translate(272.5 184.54)">0</text><text class="cls-9" transform="translate(359.5 184.13)">0</text><text class="cls-9" transform="translate(467.17 66.17)">15</text><text class="cls-9" transform="translate(467.17 131.83)">13</text><text class="cls-9" transform="translate(467.17 197.5)">3</text><text class="cls-9" transform="translate(125.17 253.79)">9</text><text class="cls-9" transform="translate(212.32 254.21)">6</text><text class="cls-9" transform="translate(295.83 254.21)">7</text><text class="cls-9" transform="translate(382.83 253.79)">9</text><text class="cls-9" transform="translate(125.17 19.12)">1</text><text class="cls-9" transform="translate(212.32 19.54)">2</text><text class="cls-9" transform="translate(295.83 19.54)">3</text><text class="cls-9" transform="translate(382.83 19.12)">4</text><text class="cls-7" transform="translate(17.5 315.67)"><tspan class="cls-8">R</tspan><tspan x="6.5" y="0">esíduos</tspan></text><text class="cls-9" transform="translate(125.17 315.46)">14</text><text class="cls-9" transform="translate(212.32 315.88)">17</text><text class="cls-9" transform="translate(295.83 315.87)">19</text><text class="cls-9" transform="translate(382.83 315.46)">30*</text><text class="cls-9" transform="translate(578.5 71.33)">4</text><text class="cls-9" transform="translate(578.5 138.13)">4</text><text class="cls-9" transform="translate(578.5 202.13)">0</text><text class="cls-7" transform="translate(578.5 23.67)"><tspan class="cls-8">R</tspan><tspan x="6.5" y="0">esíduos</tspan></text><text class="cls-13" transform="translate(402.17 215.9)">3</text><text class="cls-13" transform="translate(146.17 148.25)">9</text><text class="cls-9" transform="translate(125.17 332.81)">31*</text><text class="cls-9" transform="translate(212.32 333.23)">1</text><text class="cls-9" transform="translate(295.83 333.23)">2</text><text class="cls-9" transform="translate(382.83 332.81)">1</text><text class="cls-9" transform="translate(603.5 71.33)">4</text><text class="cls-9" transform="translate(603.5 138.13)">4</text><text class="cls-9" transform="translate(603.5 202.13)">X</text><text class="cls-13" transform="translate(227.83 82.58)">6</text><text class="cls-9" transform="translate(626.17 71.33)">4*</text><text class="cls-9" transform="translate(626.17 138.12)">1</text><text class="cls-9" transform="translate(626.17 202.12)">X</text><text class="cls-9" transform="translate(125.17 349.48)">X</text><text class="cls-9" transform="translate(212.32 349.89)">1</text><text class="cls-9" transform="translate(295.83 349.89)">2</text><text class="cls-9" transform="translate(382.83 349.48)">1</text></svg>